<svg xmlns="http://www.w3.org/2000/svg" xmlns:xlink="http://www.w3.org/1999/xlink" version="1.1" id="Layer_1" x="0px" y="0px" viewBox="0 100 200 200" style="enable-background:new 0 0 595.3 409.4;" xml:space="preserve" height="50" width="150" preserveAspectRatio="xMinYMid meet">
<style type="text/css">
	.st0{fill-rule:evenodd;clip-rule:evenodd;fill:#ec0000;}
</style>
<g>
	<path class="st0" d="M102.3,159.1c-6.6,0.2-13.1,1.5-19.2,4.2l7.9,14c3.5-1.5,7.6-2.4,11.2-2.4c1.3,0,2.4,0.2,3.7,0.4   c15.1,1.1,27.3,16.8,26.1,31.7c-1.3,16.4-14.4,26.7-29.8,27.4c-0.9,0-2,0-2.9,0c-10.1-2.2-18.6-6.4-23.6-16l-16.6-28.7   c-2.2,6.6-2.9,12.9-2.4,19.7c2.6,21.7,19.2,38.3,40.9,40.9c1.5,0.2,3.1,0.2,4.6,0.2c25.2-0.4,45.5-20.4,45.9-45.5   c-0.4-24.9-19.3-44-43.5-45.9C103.9,159.1,103,159.1,102.3,159.1L102.3,159.1z M102.3,263.6c-32.4,0-59.1-26.5-59.1-58.7   c0-15.8,6.3-30.2,16.6-40.9l28.2,48.6c1.3,2.2,3.1,4.2,5.3,5.9c2.6,1.5,5.5,2.6,8.7,2.6c0.2,0,0.4,0,0.4,0   c11.4,0.4,19.3-12,15.5-22.1c-2.2-6.4-8.7-10.7-15.5-10.7c-0.9,0-1.8,0-2.8,0.2c-5,0.6-9.9,4.8-12.2,9.2l-22.3-38.7   c10.1-8.3,23.2-13.3,37.2-13.3c32.6,0,59.1,26.5,59.1,59.1C161.4,237.1,134.9,263.6,102.3,263.6L102.3,263.6z"/>
	<path class="st0" d="M252.7,211.9l-9-15.3c-0.4,1.5-0.6,2.9-0.6,4.6v42.2h9.6h6.6v-19.9L252.7,211.9L252.7,211.9z M348.6,208.8   l8.7,14.9v19.5h-0.2v0.2h-8.5h-9.8V192L348.6,208.8L348.6,208.8z M348.6,200.7l8.7,14.7v-9.6c0-7,11.8-7.5,11.8,0v37.4H380v0.2h9.4   v-37.6c0-7,11.8-7.5,11.8,0v37.6h18.2v-38.5c0-20.8-26.1-24.7-35.7-11.6c-5.9-8.1-18.1-9.8-26.5-5v-2.6h-8.5H340L348.6,200.7   L348.6,200.7z M450.3,218.7l-19.9-34.4c0,19.7,0,39.4,0,58.9h16.2v-2.4c3.7,1.8,7.9,2.9,12.5,2.9c15.6,0,28.5-12.9,28.5-28.7   c0-15.7-12.9-28.5-28.5-28.5c-4.6,0-8.8,1.1-12.5,2.9v-23.8h-16.2c0,6.6,0,3.7,0,10.3l20.3,34.8c1.5-2.9,4.8-5.2,8.5-5.2   c5.2,0,9.4,4.2,9.4,9.4c0,5.2-4.2,9.4-9.4,9.4C455.1,224.4,451.8,222.2,450.3,218.7L450.3,218.7z M515.1,219.3l-13.3-22.8   c-4.4,5-7,11.4-7,18.6c0,15.8,12.9,28.7,28.7,28.7c15.7,0,28.5-12.9,28.5-28.7c0-15.7-12.9-28.5-28.5-28.5c-7.2,0-13.6,2.6-18.8,7   l10.3,17.5c1.5-3.1,4.8-5.3,8.5-5.3c5.2,0,9.4,4.2,9.4,9.4c0,5.2-4.2,9.4-9.4,9.4C519.9,224.4,516.6,222.4,515.1,219.3L515.1,219.3   z M306.3,228.5c2.9-1.1,5-3.9,5.5-7h18.8c-2.8,11.6-12.3,20.4-24.3,22.1c-1.1,0-2.4,0.2-3.7,0.2c-15.7,0-28.5-12.9-28.5-28.7   c0-6.3,2-11.8,5.3-16.6l14.7,25.2c1.5,3.3,4.6,5.5,8.5,5.5C303.9,229.2,305.2,229,306.3,228.5L306.3,228.5z M306.3,210.1h5.7   c-0.4-3.5-2.6-6.3-5.7-7.5c-1.1-0.6-2.4-0.7-3.7-0.7c-5,0-8.8,3.5-9.2,8.3H306.3L306.3,210.1z M306.3,186.7c-1.1,0-2.4-0.2-3.7-0.2   c-7.7,0-15.1,3.3-20.3,8.7l13.6,23.6v-1.3h10.3h24.9c0-0.9,0.2-1.7,0.2-2.4C331.3,200.7,320.3,188.5,306.3,186.7L306.3,186.7z    M252.7,203.8l-6.8-11.6c1.8-2.2,4.2-3.7,6.8-4.4c1.5-0.6,3.1-0.7,4.6-0.7h13.1v15.1h-3.7c-4.2,0-7.4,2.9-7.4,7.4v5.7L252.7,203.8   L252.7,203.8z M196.4,218.7l-20.1-34.4c0,19.7,0,39.4,0,58.9h16.2v-2.4c3.9,1.8,8.1,2.9,12.5,2.9c15.7,0,28.7-12.9,28.7-28.7   c0-15.7-13.1-28.5-28.7-28.5c-4.4,0-8.7,1.1-12.5,2.9v-23.8h-16.2c0,6.6,0,3.7,0,10.3l20.3,34.8c1.5-2.9,4.8-5.2,8.5-5.2   c5.2,0,9.4,4.2,9.4,9.4c0,5.2-4.2,9.4-9.4,9.4C201.1,224.4,197.8,222.2,196.4,218.7L196.4,218.7z"/>
</g>
</svg>