<svg viewBox="0 0 24 24" class="SocialIcon2__StyledSocialIcon2-sc-1w7qrl5-0 bA-dAbP"><path fill="currentColor" fill-rule="evenodd" d="M22 12c0 5.523-4.477 10-10 10S2 17.523 2 12 6.477 2 12 2s10 4.477 10 10zm-9.641-2.618c-.973.405-2.917 1.242-5.832 2.513-.474.188-.722.372-.744.552-.038.304.343.424.862.587l.219.07c.51.166 1.197.36 1.554.368.324.007.685-.127 1.084-.4 2.724-1.84 4.13-2.769 4.218-2.789.063-.014.15-.032.208.02.058.052.052.15.046.177-.038.161-1.534 1.552-2.308 2.271-.241.225-.412.384-.447.42-.079.082-.159.159-.235.233-.475.457-.83.8.02 1.36.408.27.734.492 1.06.714.356.242.711.484 1.17.785.118.077.23.156.339.234.414.296.786.56 1.246.519.267-.025.543-.276.683-1.026.332-1.77.983-5.608 1.133-7.19a1.764 1.764 0 00-.016-.393.421.421 0 00-.143-.27c-.12-.098-.304-.118-.387-.117-.376.007-.953.207-3.73 1.362z" clip-rule="evenodd"></path></svg>
