<svg xmlns="http://www.w3.org/2000/svg" width="32" height="32" viewBox="0 0 32 32" fill="none">
    <path d="M2.85584 15.0405C10.105 12.0772 14.9377 10.1234 17.3541 9.17946C24.2613 6.48412 25.6948 6.016 26.6311 6.00014C26.837 5.99704 27.2954 6.0448 27.5945 6.27175C27.8432 6.46316 27.9131 6.72201 27.9481 6.90375C27.9791 7.08531 28.0219 7.49911 27.9869 7.82213C27.614 11.5117 25.994 20.4651 25.1704 24.5976C24.8246 26.3461 24.137 26.9324 23.4727 26.9896C22.0276 27.1143 20.932 26.0942 19.5335 25.2341C17.3463 23.8877 16.1109 23.0499 13.9859 21.7364C11.5307 20.2182 13.1235 19.3837 14.522 18.0202C14.8872 17.6633 21.2506 12.2328 21.371 11.7403C21.3866 11.6787 21.4021 11.449 21.2545 11.3279C21.1107 11.2065 20.8971 11.2481 20.7417 11.2809C20.5202 11.3276 17.0278 13.4961 10.2526 17.7861C9.26195 18.4256 8.36455 18.7373 7.5565 18.7209C6.67076 18.703 4.96143 18.2499 3.69108 17.8627C2.13714 17.3876 0.897877 17.1364 1.00665 16.3296C1.06104 15.9096 1.67873 15.4798 2.85584 15.0405V15.0405Z" fill="white"/>
</svg>